<svg width="690" height="921" viewBox="0 0 690 921" fill="none" xmlns="http://www.w3.org/2000/svg">
<g clip-path="url(#clip0_2109_3038)">
<path d="M580.959 635.894H579.984C543.42 635.407 515.307 609.946 508.319 570.861C506.532 560.806 513.194 551.238 523.27 549.292C533.345 547.508 542.933 554.157 544.883 564.212C548.783 585.781 561.621 598.431 580.309 598.593H580.797C607.61 598.593 641.574 573.132 653.112 516.694C655.224 506.639 664.975 500.152 675.05 502.26C685.126 504.369 691.626 514.099 689.513 524.154C673.75 600.864 622.398 635.732 580.797 635.732L580.959 635.894Z" fill="url(#paint0_linear_2109_3038)"/>
<path d="M310.549 877.212C472.457 877.212 603.71 746.226 603.71 584.646C603.71 423.066 472.457 292.08 310.549 292.08C148.641 292.08 17.3887 423.066 17.3887 584.646C17.3887 746.226 148.641 877.212 310.549 877.212Z" fill="url(#paint1_linear_2109_3038)"/>
<path d="M338.482 620.25C386.561 611.772 415.739 549.558 403.652 481.29C391.566 413.022 342.792 364.552 294.713 373.03C246.634 381.508 217.456 443.722 229.543 511.99C241.629 580.258 290.403 628.728 338.482 620.25Z" fill="white"/>
<path d="M328.588 534.209C309.575 538.912 289.586 520.749 283.736 493.665C277.886 466.582 288.611 440.796 307.625 436.092C326.638 431.389 346.626 449.553 352.476 476.637C358.326 503.72 347.601 529.506 328.588 534.209Z" fill="black"/>
<path d="M242.296 344.787C240.996 344.787 239.696 344.301 238.884 343.328C237.096 341.382 237.096 338.3 239.046 336.516C240.509 335.057 276.585 302.135 338.987 319.001C341.587 319.65 343.05 322.407 342.4 324.84C341.75 327.434 339.15 328.894 336.55 328.245C279.185 312.839 246.034 343.166 245.709 343.49C244.734 344.301 243.596 344.787 242.459 344.787H242.296Z" fill="black"/>
<path d="M307.786 696.548C260.172 696.548 238.559 674.33 237.584 673.194C234.821 670.275 234.821 665.41 237.909 662.653C240.834 659.896 245.547 659.896 248.472 662.977C249.447 663.95 273.01 687.628 328.1 680.33C332 679.844 335.9 682.601 336.55 686.655C337.037 690.709 334.275 694.439 330.212 695.088C322.249 696.223 314.937 696.548 307.949 696.548H307.786Z" fill="black"/>
<path d="M204.385 891.842C174.63 887.459 144.86 882.453 115.075 877.76L117.844 877.763C74.8687 876.61 40.7281 874.923 -2.27659 873.461C-5.19064 873.338 -7.61932 870.356 -7.64841 866.788C-7.67939 863.666 -5.91283 861.131 -3.51323 860.544C38.6581 850.971 72.0586 842.595 114.272 833.465C144.86 834.42 175.454 834.973 205.983 836.246C237.293 839.141 235.743 894.777 204.341 891.846L204.385 891.842Z" fill="#616165"/>
<path d="M78.6061 904.911C73.4736 905.403 69.3764 863.074 69.207 861.305C69.0376 859.535 65.0247 817.154 70.1571 816.663C75.2896 816.171 79.3868 858.5 79.5604 860.313C79.734 862.127 83.7385 904.42 78.6061 904.911ZM70.3138 818.3C68.9347 820.217 68.3016 835.991 70.7114 861.161C73.1211 886.33 76.7356 901.698 78.4536 903.319C79.8328 901.401 80.4658 885.627 78.0561 860.458C75.6463 835.288 72.0318 819.921 70.3138 818.3Z" fill="#AE63F9"/>
<path d="M50.9791 896.173C45.8466 896.664 42.787 865.173 42.66 863.846C42.5329 862.519 39.5618 831.02 44.6943 830.529C49.8267 830.037 52.8863 861.528 53.0133 862.855C53.1404 864.182 56.1115 895.682 50.9791 896.173ZM44.8425 832.077C43.6544 832.726 42.3113 843.881 44.2086 863.698C46.1059 883.515 49.4969 894.217 50.8751 894.62C52.0631 893.971 53.4063 882.816 51.509 862.999C49.6117 843.182 46.2207 832.48 44.8425 832.077Z" fill="#AE63F9"/>
<path d="M24.593 891.066C22.0268 891.311 20.1174 881.629 19.0242 873.475C18.9819 873.033 19.2577 872.649 19.7002 872.607C20.0541 872.573 20.5262 872.84 20.5686 873.282C22.0063 883.635 23.631 888.479 24.432 889.385C25.3584 887.868 25.9399 879.018 24.6483 865.526C23.3566 852.035 21.1064 843.456 19.909 842.142C19.4901 842.896 18.7731 846.134 18.9753 854.775C19.0177 855.218 18.6891 855.517 18.2024 855.564C17.76 855.606 17.4121 855.237 17.414 854.791C17.0449 840.675 18.9917 840.489 19.7439 840.417C23.6374 840.044 25.9427 862.724 26.1884 865.289C26.434 867.855 28.4738 890.56 24.5803 890.933L24.593 891.066Z" fill="#AE63F9"/>
<path d="M11.5162 857.096C10.7436 863.018 10.7124 868.289 11.029 873.928C15.5528 874.075 19.9924 874.275 24.3392 874.439L22.4377 854.578C18.8119 855.416 15.1862 856.254 11.5204 857.141L11.5162 857.096Z" fill="#616165"/>
<path d="M61.739 845.324L64.6739 875.979C67.6322 876.098 70.6347 876.212 73.6373 876.326L70.4779 843.327C67.5516 844.009 64.6253 844.691 61.7433 845.369L61.739 845.324Z" fill="#616165"/>
<path d="M38.6813 850.746C37.3198 858.911 37.3742 866.941 37.9153 874.925C40.8736 875.043 43.8319 875.162 46.7901 875.28C45.9977 866.071 45.8087 858.5 47.7657 848.626C44.7509 849.317 41.7403 850.051 38.6813 850.746Z" fill="#616165"/>
<path d="M541.372 771.593C548.016 840.997 456.33 906.558 336.602 918.02C216.875 929.483 114.414 882.51 107.77 813.106L541.372 771.593Z" fill="#4E4E52"/>
<path d="M623.932 701.192C628.845 752.504 499.117 806.886 334.171 822.678C169.225 838.47 31.5357 809.691 26.623 758.378L623.932 701.192Z" fill="#4E4E52"/>
<path d="M541.37 771.593C548.015 840.997 457.877 906.409 340.008 917.694C298.329 921.684 194.514 902.072 172.676 806.892L541.37 771.593Z" fill="#88888C"/>
<path d="M631.308 682.63L17.5838 741.388C11.8658 741.936 7.67415 747.014 8.22147 752.73C8.76878 758.447 13.8478 762.637 19.5658 762.09L633.29 703.332C639.008 702.785 643.199 697.706 642.652 691.99C642.105 686.273 637.026 682.083 631.308 682.63Z" fill="#2C2C33"/>
<path d="M524.578 727.712L120.09 766.438C119.308 766.513 118.735 767.207 118.809 767.989L118.869 768.608C118.943 769.39 119.638 769.963 120.42 769.888L524.909 731.162C525.691 731.088 526.264 730.393 526.189 729.611L526.13 728.992C526.055 728.21 525.36 727.637 524.578 727.712Z" fill="#2C2C33"/>
<path d="M189.586 870.179C199.116 869.267 206.102 860.803 205.19 851.276C204.278 841.748 195.813 834.764 186.283 835.676C176.753 836.588 169.767 845.052 170.679 854.58C171.591 864.107 180.056 871.092 189.586 870.179Z" fill="#2C2C33"/>
<path d="M488.037 837.142C497.567 836.229 504.554 827.766 503.641 818.238C502.729 808.71 494.264 801.726 484.734 802.639C475.204 803.551 468.218 812.015 469.13 821.542C470.042 831.07 478.507 838.054 488.037 837.142Z" fill="#2C2C33"/>
<path d="M285.844 901.81C295.374 900.897 302.36 892.434 301.448 882.906C300.536 873.378 292.071 866.394 282.541 867.306C273.011 868.219 266.025 876.682 266.937 886.21C267.849 895.738 276.314 902.722 285.844 901.81Z" fill="#2C2C33"/>
<path d="M402.432 890.647C411.962 889.735 418.948 881.272 418.036 871.744C417.124 862.216 408.659 855.232 399.129 856.144C389.599 857.057 382.613 865.52 383.525 875.048C384.437 884.576 392.902 891.56 402.432 890.647Z" fill="#2C2C33"/>
<path d="M159.744 777.312C157.956 777.312 156.169 776.988 154.381 776.501C116.355 764.987 89.0539 743.579 75.4034 714.387C60.9404 683.736 62.0779 646.76 78.491 607.513C82.3911 598.107 93.279 593.728 102.867 597.62C112.455 601.513 116.68 612.378 112.78 621.947C104.167 642.381 96.5291 672.222 109.042 698.656C118.305 718.28 137.156 732.551 165.107 740.984C174.857 743.904 180.382 754.283 177.457 764.013C175.019 771.96 167.707 777.15 159.744 777.15V777.312Z" fill="url(#paint2_linear_2109_3038)"/>
<path d="M332.65 260.293C116.192 255.59 50.7018 425.227 50.3768 427.011C49.2392 431.552 51.6768 436.093 55.902 437.714C56.3895 437.876 56.877 438.039 57.3645 438.201C61.2647 439.012 65.3273 437.066 67.1149 433.498C67.9274 431.876 173.394 268.24 372.301 302.784C441.528 314.785 490.28 346.571 524.081 380.466C522.944 380.628 544.232 374.303 529.932 356.464C495.155 318.515 414.878 262.239 332.487 260.455L332.65 260.293Z" fill="url(#paint3_linear_2109_3038)"/>
<path d="M80.1151 101.036C88.2404 106.874 82.8777 117.416 78.8151 123.903C75.0774 129.741 71.3398 135.58 70.6898 142.715C69.7147 155.365 76.7025 168.177 89.0529 172.556C100.103 176.448 114.891 173.367 120.904 162.501C127.242 150.986 117.979 138.661 105.304 142.553C82.2277 149.527 72.8023 182.124 87.5904 200.774C101.078 217.641 134.88 221.209 145.93 199.315C151.78 187.638 143.167 176.935 130.492 179.854C118.304 182.611 108.879 194.612 106.604 206.613C104.003 219.749 109.854 234.345 120.904 242.13C131.954 249.914 148.205 252.833 159.743 245.86C169.493 240.021 172.743 224.939 162.343 217.965C151.943 210.992 137.317 217.154 130.329 226.398C122.367 237.102 122.042 251.049 128.704 262.564C136.017 275.214 149.668 282.025 163.968 281.863C174.044 281.863 194.682 277.971 192.407 264.023C190.132 250.076 173.068 250.725 163.318 255.266C152.918 259.969 142.68 269.699 140.405 281.376C138.13 293.053 146.905 303.919 156.005 309.595C160.556 312.352 165.593 313.811 170.631 315.109C173.881 315.92 174.856 310.73 171.606 309.919C163.318 307.973 156.655 304.892 151.293 298.08C144.63 289.809 143.655 281.376 149.993 272.619C155.03 265.483 163.156 259.645 171.768 257.861C177.619 256.725 186.556 257.698 187.369 265.159C188.019 271.808 178.269 274.24 173.231 275.376C162.343 277.97 150.318 276.349 141.38 269.213C133.092 262.564 127.404 251.374 129.679 240.508C131.629 230.615 139.592 221.371 149.993 220.236C155.193 219.749 161.531 221.533 163.318 227.047C165.431 233.372 160.718 239.859 155.193 242.454C145.28 246.833 131.304 243.589 123.179 237.102C115.054 230.615 110.504 219.587 111.966 209.208C113.429 199.477 120.092 189.584 129.517 185.854C134.555 183.908 142.517 183.908 143.167 191.044C143.655 196.882 138.78 202.072 134.23 204.991C119.929 214.235 98.1533 208.883 89.8655 193.963C81.5777 179.043 88.4029 156.338 104.328 148.878C107.579 147.418 111.966 145.797 115.216 148.067C118.304 150.175 118.792 154.392 117.979 157.636C116.191 163.96 109.366 168.015 103.028 168.826C90.678 170.61 79.3026 162.339 77.0275 150.175C74.5899 137.364 83.8527 129.903 88.4029 119.2C91.4905 111.74 91.4905 102.171 84.3403 97.1438C81.5777 95.1976 78.165 99.252 80.9276 101.198L80.1151 101.036Z" fill="#CECED2"/>
<path d="M443.642 79.9531C446.405 84.3319 446.73 89.5215 449.005 94.2246C451.28 98.9278 453.23 102.333 453.555 107.361C454.205 117.578 448.355 127.309 438.442 130.714C429.829 133.796 413.253 131.201 413.578 119.2C414.066 106.064 431.942 113.848 437.467 118.551C450.467 129.255 455.18 149.527 443.967 163.15C434.379 174.989 413.253 180.665 400.903 169.637C396.84 166.069 393.103 159.095 398.79 155.041C402.853 152.122 409.353 153.743 413.578 155.527C422.516 159.42 429.342 168.015 431.129 177.583C432.917 187.8 429.342 198.828 421.541 205.802C414.228 212.289 402.041 216.992 392.453 213.911C387.577 212.451 383.352 208.235 382.865 202.883C382.215 196.396 388.065 192.341 393.915 191.693C403.178 190.557 412.116 196.396 416.666 204.018C428.854 224.452 409.841 247.319 389.203 249.752C383.677 250.401 377.827 250.076 372.464 248.454C362.552 245.697 366.289 235.642 374.252 233.21C383.84 230.453 394.728 234.994 402.203 240.994C405.778 243.913 409.191 247.644 410.816 252.184C412.603 257.374 411.141 261.915 408.703 266.78C404.641 275.214 398.465 279.917 390.178 283.647C387.09 285.106 388.878 289.972 391.965 288.512C402.853 283.647 410.328 276.835 414.878 265.645C419.429 254.455 414.878 244.562 406.103 237.264C397.328 229.966 383.515 224.614 371.977 228.345C361.902 231.588 355.726 246.833 367.752 252.184C393.753 263.699 428.041 243.427 425.441 214.073C424.304 201.91 415.691 190.882 403.991 187.152C393.59 183.908 378.152 187.963 377.665 200.937C377.177 213.911 390.015 220.56 401.391 219.587C415.041 218.452 428.529 209.856 434.054 197.044C439.254 184.881 437.467 170.61 428.854 160.393C421.866 152.122 408.378 144.175 397.49 149.689C385.302 155.689 392.29 170.448 401.065 175.799C410.491 181.638 422.841 181.638 432.917 177.583C455.83 168.339 462.33 141.256 447.867 121.632C441.529 113.037 429.341 104.604 417.966 106.874C404.966 109.631 406.753 126.173 415.691 132.498C425.604 139.634 440.067 138.174 449.167 130.39C458.268 122.606 461.518 108.01 456.48 96.6573C454.855 93.0894 453.067 90.0081 451.93 86.278C450.955 82.8723 449.817 79.7909 447.867 76.7096C446.08 73.7904 441.854 76.8718 443.642 79.7909V79.9531Z" fill="#CECED2"/>
<path d="M36.5638 26.4348V71.0333L0 97.7924L42.5765 113.199L55.902 155.365L81.5779 119.2L126.43 119.848L98.6411 80.7639L112.942 38.4359L70.6901 54.0048L36.5638 26.4348Z" fill="#EE028C"/>
<path d="M473.543 0L481.83 40.0576L520.994 59.5188L483.618 77.3582L480.043 117.578L446.404 88.224L401.39 96.0085L419.266 60.3296L394.402 22.2182L444.454 30.0026L473.543 0Z" fill="#EE028C"/>
</g>
<defs>
<linearGradient id="paint0_linear_2109_3038" x1="694.58" y1="560.956" x2="509.461" y2="581.238" gradientUnits="userSpaceOnUse">
<stop stop-color="#13EF93"/>
<stop offset="1" stop-color="#B8F8D2"/>
</linearGradient>
<linearGradient id="paint1_linear_2109_3038" x1="-330.999" y1="933" x2="410.657" y2="475.133" gradientUnits="userSpaceOnUse">
<stop stop-color="#3A00D3"/>
<stop offset="1" stop-color="#13EF93"/>
</linearGradient>
<linearGradient id="paint2_linear_2109_3038" x1="29.0006" y1="658.5" x2="145.004" y2="665.949" gradientUnits="userSpaceOnUse">
<stop stop-color="#B8F8D2"/>
<stop offset="1" stop-color="#13EF93"/>
</linearGradient>
<linearGradient id="paint3_linear_2109_3038" x1="-460.038" y1="731.015" x2="649.417" y2="327.235" gradientUnits="userSpaceOnUse">
<stop offset="0.0566272" stop-color="#FF2EEA"/>
<stop offset="0.925035" stop-color="#4B3CFF"/>
</linearGradient>
<clipPath id="clip0_2109_3038">
<rect width="690" height="921" fill="white"/>
</clipPath>
</defs>
</svg>
