<svg width="344" height="344" viewBox="0 0 344 344" fill="none" xmlns="http://www.w3.org/2000/svg">
<mask id="mask0_1195_3335" style="mask-type:alpha" maskUnits="userSpaceOnUse" x="0" y="0" width="344" height="344">
<circle cx="171.805" cy="172.195" r="171.805" fill="#FB3640"/>
</mask>
<g mask="url(#mask0_1195_3335)">
<rect x="-11.381" y="-19.8431" width="376.839" height="390.749" fill="url(#paint0_linear_1195_3335)"/>
</g>
<path d="M179.58 273.257H98.5874C95.8759 273.257 94.5202 269.985 96.4243 268.067L148.597 215.603C149.175 215.024 149.952 214.705 150.76 214.705H180.205C202.962 214.705 222.217 196.912 222.902 174.188C223.603 150.566 204.577 131.145 181.103 131.145H149.556V169.993C149.556 171.667 148.185 173.037 146.51 173.037H94.0023C92.3267 173.037 90.9557 171.667 90.9557 169.993V75.6212C90.9557 73.947 92.3267 72.5771 94.0023 72.5771H181.103C236.992 72.5771 282.371 118.436 281.518 174.477C280.68 229.529 234.692 273.257 179.58 273.257Z" fill="white"/>
<defs>
<linearGradient id="paint0_linear_1195_3335" x1="229.518" y1="156.563" x2="446.112" y2="-97.9027" gradientUnits="userSpaceOnUse">
<stop/>
<stop offset="1" stop-color="#404043"/>
</linearGradient>
</defs>
</svg>
