<svg xmlns="http://www.w3.org/2000/svg" width="12" height="16" fill="none"><g clip-path="url(#a)"><path fill="#fff" d="M10.75 6a.76.76 0 0 1 .75.75V8c0 2.781-2.094 5.094-4.75 5.469V14.5h1.5a.76.76 0 0 1 .75.75c0 .438-.344.75-.781.75h-4.5C3.313 16 3 15.625 3 15.25c0-.406.313-.75.719-.75H5.25v-1.094C2.5 13.031.5 10.531.5 7.75v-1A.74.74 0 0 1 1.25 6a.76.76 0 0 1 .75.75v1.094C2 9.937 3.5 11.78 5.594 12 7.969 12.219 10 10.344 10 8V6.75a.74.74 0 0 1 .75-.75ZM6 11a3 3 0 0 1-3-3V3a3 3 0 0 1 3-3c1.656 0 3 1.375 3 3v5a3 3 0 0 1-3 3ZM4.5 3v5c0 .844.656 1.5 1.5 1.5A1.5 1.5 0 0 0 7.5 8V3c0-.813-.688-1.5-1.5-1.5A1.5 1.5 0 0 0 4.5 3Z"/></g><defs><clipPath id="a"><path fill="#fff" d="M0 0h12v16H0z"/></clipPath></defs></svg>