<svg xmlns="http://www.w3.org/2000/svg" width="12" height="16" fill="none"><g fill="#BA80F5" clip-path="url(#a)"><path d="M2.91 2.91a2.91 2.91 0 0 1 5.817 0v4.848a2.91 2.91 0 0 1-5.818 0V2.909Z"/><path d="M1.212 5.818c.403 0 .727.324.727.727v1.213a3.879 3.879 0 1 0 7.758 0V6.545c0-.403.324-.727.727-.727.403 0 .728.324.728.727v1.213c0 2.7-2.007 4.93-4.607 5.284v1.019H8c.403 0 .727.324.727.727a.726.726 0 0 1-.727.727H3.636a.726.726 0 0 1-.727-.727c0-.403.324-.727.727-.727h1.455v-1.019A5.335 5.335 0 0 1 .485 7.758V6.545c0-.403.324-.727.727-.727Z" opacity=".4"/></g><defs><clipPath id="a"><path fill="#fff" d="M0 0h12v16H0z"/></clipPath></defs></svg>