<svg width="1049" height="1081" viewBox="0 0 1049 1081" fill="none" xmlns="http://www.w3.org/2000/svg">
<g clip-path="url(#clip0_1028_2382)">
<path d="M821.789 1080.2C861.855 1080.2 894.334 1047.74 894.334 1007.71C894.334 967.667 861.855 935.209 821.789 935.209C781.724 935.209 749.244 967.667 749.244 1007.71C749.244 1047.74 781.724 1080.2 821.789 1080.2Z" fill="#38EAA9"/>
<path d="M878.737 962.758C903.547 994.149 898.179 1039.75 866.767 1064.62C835.355 1089.48 789.724 1084.04 764.841 1052.65C764.841 1052.65 771.878 1004.59 819.54 1004.88C862.487 1005.17 878.737 962.83 878.737 962.83V962.758Z" fill="#FB5C5C"/>
<path d="M729.875 740.483C729.875 740.483 741.337 709.164 703.251 675.67C700.204 672.988 692.079 679.223 695.416 684.515C698.753 689.807 713.77 706.337 711.231 733.595L729.875 740.41V740.483Z" fill="#5D6FCD"/>
<path d="M691.136 784.488C691.136 784.488 661.537 799.857 623.451 766.364C620.404 763.682 625.555 754.837 631.286 757.519C637.017 760.202 655.299 772.889 682.068 766.944L691.208 784.488H691.136Z" fill="#5D6FCD"/>
<path d="M679.166 761.217L706.806 729.753C706.806 729.753 801.259 748.675 823.821 846.763C828.246 865.902 814.027 866.844 804.161 864.67C794.295 862.495 702.525 850.823 679.166 761.217Z" fill="#F83640"/>
<path d="M777.029 858.29C776.884 859.087 803.943 865.612 808.513 865.83C819.685 866.482 828.246 865.902 823.82 846.763C821.281 835.671 817.799 825.666 813.664 816.459C813.664 816.459 782.978 828.856 777.029 858.217V858.29Z" fill="#D7FFEF"/>
<path d="M758.82 831.756C772.162 831.756 782.978 820.948 782.978 807.615C782.978 794.282 772.162 783.473 758.82 783.473C745.478 783.473 734.663 794.282 734.663 807.615C734.663 820.948 745.478 831.756 758.82 831.756Z" fill="#D7FFEF"/>
<path d="M758.82 825.739C768.837 825.739 776.957 817.624 776.957 807.615C776.957 797.605 768.837 789.49 758.82 789.49C748.804 789.49 740.684 797.605 740.684 807.615C740.684 817.624 748.804 825.739 758.82 825.739Z" fill="#5D6FCD"/>
<path d="M708.692 760.927C708.692 760.927 719.864 754.257 694.183 734.755C671.694 717.646 665.6 712.354 660.304 718.371C655.009 724.388 667.269 737.873 680.907 749.835C694.546 761.797 702.09 768.466 708.764 760.854L708.692 760.927Z" fill="#5D6FCD"/>
<path d="M581.303 931.077C581.303 931.077 581.013 931.077 580.795 931.077C579.489 930.787 578.691 929.554 578.981 928.249C583.334 907.515 597.988 889.028 617.14 879.966C618.301 879.386 619.752 879.966 620.332 881.126C620.912 882.286 620.332 883.736 619.171 884.316C601.325 892.726 587.759 909.98 583.624 929.264C583.407 930.352 582.391 931.149 581.303 931.149V931.077Z" fill="#4F5860"/>
<path d="M652.034 978.489C652.034 978.489 651.816 978.489 651.671 978.489C650.365 978.272 649.495 977.039 649.713 975.735C652.179 960.438 654.283 944.778 656.024 929.264C656.169 927.959 657.257 927.089 658.636 927.162C659.941 927.307 660.884 928.467 660.739 929.772C658.998 945.358 656.894 961.09 654.428 976.46C654.21 977.619 653.195 978.489 652.107 978.489H652.034Z" fill="#4F5860"/>
<path d="M675.611 789.998L676.264 760.782L664.874 760.492L664.222 788.548C656.314 788.185 648.189 788.983 640.137 791.303C625.99 795.29 614.02 803.12 604.952 813.269L577.748 779.703L568.897 786.88L597.843 822.621C586.598 840.021 582.608 861.987 588.702 883.446C599.947 923.102 641.225 946.156 680.907 934.846C720.589 923.609 743.658 882.359 732.341 842.703C724.506 815.009 701.945 795.435 675.539 789.998H675.611Z" fill="url(#paint0_linear_1028_2382)"/>
<path d="M755.556 881.416C754.903 881.416 754.323 881.199 753.815 880.691C748.519 875.182 742.643 869.527 735.606 865.612C728.207 861.552 720.444 860.03 713.77 861.48C712.537 861.697 711.231 860.9 710.941 859.667C710.651 858.362 711.521 857.13 712.754 856.84C720.589 855.172 729.512 856.84 737.928 861.48C745.545 865.684 751.711 871.629 757.225 877.356C758.168 878.299 758.095 879.821 757.225 880.691C756.789 881.126 756.136 881.344 755.556 881.344V881.416Z" fill="#4F5860"/>
<path d="M726.538 960.945C725.667 960.945 724.869 960.51 724.434 959.713L701.8 918.027C701.147 916.867 701.582 915.417 702.743 914.837C703.904 914.185 705.355 914.62 705.935 915.78L728.569 957.465C729.222 958.625 728.787 960.075 727.626 960.655C727.263 960.873 726.901 960.945 726.465 960.945H726.538Z" fill="#4F5860"/>
<path d="M567.302 800.582C584.089 800.582 597.698 786.982 597.698 770.206C597.698 753.43 584.089 739.83 567.302 739.83C550.514 739.83 536.905 753.43 536.905 770.206C536.905 786.982 550.514 800.582 567.302 800.582Z" fill="white"/>
<path d="M594.796 762.377C597.916 773.831 593.853 786.3 584.132 793.333C574.411 800.365 561.28 800.582 551.342 793.985C541.403 787.388 536.543 774.701 539.517 763.101C542.491 751.502 552.938 742.585 564.98 741.715C578.546 740.7 590.879 749.472 594.724 762.449C595.377 764.624 598.859 763.681 598.133 761.507C594.288 748.675 583.116 739.323 569.696 738.235C556.275 737.148 543.072 745.05 537.631 757.374C532.262 769.699 535.237 784.561 545.03 793.768C554.824 802.975 569.623 805.005 581.666 798.987C595.377 792.1 601.978 776.151 598.061 761.507C597.48 759.259 593.998 760.202 594.651 762.449L594.796 762.377Z" fill="#231F20"/>
<path d="M568.97 768.974C568.172 768.031 566.794 767.451 565.561 767.886C564.473 768.249 563.602 769.119 563.312 770.206C563.094 770.931 563.239 771.656 563.529 772.309C563.82 772.889 564.255 773.614 564.908 773.904C564.908 773.904 565.053 773.904 565.053 773.976C565.778 774.339 566.576 774.484 567.374 774.266C568.172 773.976 568.753 773.541 569.188 772.816C569.188 772.816 569.188 772.744 569.261 772.671C569.333 772.381 569.478 772.164 569.551 771.874C569.551 771.584 569.551 771.294 569.623 771.004C569.623 770.279 569.333 769.554 568.898 768.974H568.97Z" fill="#231F20"/>
<path d="M670.751 764.334C687.538 764.334 701.147 750.734 701.147 733.958C701.147 717.181 687.538 703.582 670.751 703.582C653.963 703.582 640.354 717.181 640.354 733.958C640.354 750.734 653.963 764.334 670.751 764.334Z" fill="white"/>
<path d="M698.245 726.128C701.365 737.583 697.302 750.052 687.581 757.084C677.933 764.116 664.73 764.334 654.791 757.737C644.852 751.139 639.992 738.453 642.966 726.853C645.94 715.254 656.387 706.336 668.429 705.466C681.995 704.452 694.328 713.224 698.173 726.201C698.826 728.375 702.308 727.433 701.582 725.258C697.738 712.426 686.566 703.074 673.145 701.987C659.724 700.899 646.521 708.801 641.08 721.126C635.639 733.45 638.686 748.312 648.48 757.519C658.346 766.726 673.072 768.756 685.115 762.739C698.826 755.852 705.427 739.902 701.51 725.258C700.93 723.011 697.447 723.953 698.1 726.201L698.245 726.128Z" fill="#231F20"/>
<path d="M672.419 732.725C671.621 731.783 670.243 731.203 669.009 731.638C667.921 732 667.051 732.87 666.761 733.958C666.543 734.683 666.688 735.408 666.978 736.06C667.268 736.64 667.704 737.365 668.356 737.655C668.356 737.655 668.502 737.655 668.502 737.728C669.227 738.09 670.025 738.235 670.823 738.018C671.621 737.728 672.201 737.293 672.637 736.568C672.637 736.568 672.637 736.495 672.709 736.423C672.782 736.133 672.927 735.915 672.999 735.625C672.999 735.335 672.999 735.045 673.072 734.755C673.072 734.03 672.782 733.305 672.346 732.725H672.419Z" fill="#231F20"/>
<path d="M652.034 829.074C644.707 829.944 637.743 832.771 632.084 837.266C631.286 837.556 630.561 837.918 629.763 838.208C627.223 839.223 625.41 840.456 623.814 842.703C621.275 846.545 620.84 852.055 624.249 855.535C627.586 859.015 633.1 859.015 637.235 857.13C638.033 856.767 638.758 856.332 639.484 855.897C639.629 855.897 639.701 855.752 639.846 855.68C643.183 853.36 645.868 850.17 649.132 847.85C649.64 848.068 650.22 847.85 650.438 847.415C650.51 847.27 650.583 847.053 650.656 846.908C650.946 846.763 651.236 846.545 651.599 846.4C655.298 844.66 658.926 846.183 662.625 847.053C662.916 847.27 663.206 847.27 663.569 847.27C664.802 847.56 666.035 847.705 667.268 847.633C671.694 847.343 675.901 844.588 675.756 839.803C675.393 829.219 659.579 828.204 651.961 829.146L652.034 829.074ZM633.753 852.563C629.908 853.433 626.208 851.258 627.224 847.343C628.747 845.458 630.416 843.645 632.229 842.123C632.882 844.515 634.188 846.908 635.058 849.155C635.421 849.953 635.711 850.895 636.074 851.765C635.349 852.128 634.551 852.418 633.753 852.635V852.563ZM646.52 842.123C646.52 842.123 646.666 842.848 646.738 843.21C645.94 843.718 645.142 844.298 644.417 844.95C642.531 846.473 640.717 848.503 638.686 850.098C638.323 849.373 637.96 848.72 637.67 848.068C636.582 845.675 635.639 842.848 634.115 840.673C634.696 840.238 635.276 839.803 635.856 839.441C636.582 839.078 637.307 838.643 637.96 838.136C640.137 836.903 642.385 835.816 644.779 835.018C645.36 837.411 645.94 839.803 646.593 842.196L646.52 842.123ZM649.858 841.471C649.858 841.471 649.858 841.253 649.785 841.181C649.06 838.788 648.334 836.468 647.536 834.076C651.889 832.988 656.967 832.408 661.61 833.133C661.465 834.946 661.61 836.758 661.682 838.498C661.682 839.513 661.682 840.528 661.682 841.543C659.796 840.963 657.91 840.383 655.951 840.238C653.775 840.093 651.744 840.601 649.785 841.398L649.858 841.471ZM671.186 839.803C670.968 841.906 668.719 842.486 666.906 842.558C666.398 842.558 665.89 842.558 665.382 842.486C665.382 841.036 665.165 839.513 665.092 838.063C665.019 836.758 665.019 835.308 664.874 834.003C666.035 834.366 667.196 834.873 668.211 835.453C669.735 836.323 671.331 837.918 671.186 839.803Z" fill="#231F20"/>
<path d="M641.95 879.966C640.209 877.501 637.235 876.269 634.261 876.704L591.894 883.229L562.514 852.127C560.482 849.953 557.363 849.155 554.461 850.025C551.559 850.895 549.456 853.36 549.02 856.332L542.201 898.598L503.462 916.94C500.778 918.245 498.964 920.927 498.964 923.972C498.964 926.944 500.56 929.772 503.245 931.076L541.331 950.651L546.772 993.134C547.134 996.106 549.165 998.644 552.067 999.586C554.897 1000.53 558.089 999.803 560.192 997.701L590.589 967.542L632.665 975.445C633.971 975.662 635.204 975.59 636.437 975.227C638.033 974.72 639.411 973.777 640.427 972.4C642.241 970.007 642.531 966.817 641.152 964.135L621.856 925.929L642.386 888.376C643.837 885.766 643.619 882.504 641.95 880.039V879.966Z" fill="#FB5C5C"/>
<path d="M813.519 844.878C812.721 842.993 810.907 841.76 808.876 841.615L779.931 840.02L764.841 815.299C763.753 813.559 761.794 812.617 759.836 812.762C757.877 812.907 756.063 814.284 755.338 816.169L744.892 843.21L716.672 849.953C714.713 850.387 713.189 851.982 712.682 853.94C712.246 855.897 712.972 858 714.495 859.232L736.984 877.501L734.663 906.355C734.518 908.385 735.533 910.342 737.274 911.357C739.015 912.372 741.192 912.372 742.933 911.285L767.308 895.553L794.077 906.718C794.875 907.08 795.746 907.153 796.616 907.08C797.704 907.008 798.792 906.573 799.663 905.775C801.186 904.47 801.839 902.368 801.331 900.41L793.932 872.427L812.794 850.46C814.099 848.938 814.462 846.763 813.664 844.878H813.519Z" fill="#D4DCE8"/>
<path d="M750.115 979.432C743.441 979.432 736.694 977.112 731.326 972.327C725.014 966.745 721.242 958.915 721.097 950.868C720.952 943.836 723.491 937.311 728.424 932.527C728.714 932.237 735.968 925.277 743.368 925.857C744.819 925.929 745.907 927.162 745.835 928.539C745.835 929.989 744.601 931.004 743.15 931.004C738.87 930.859 733.647 934.701 732.051 936.224C728.206 939.994 726.175 945.141 726.32 950.723C726.465 957.32 729.657 963.918 734.808 968.485C739.523 972.617 745.399 974.575 751.711 974.285C757.95 973.85 763.608 971.095 767.743 966.383C768.686 965.295 770.282 965.223 771.37 966.165C772.459 967.108 772.531 968.702 771.588 969.79C765.929 976.17 758.095 979.432 750.115 979.432Z" fill="#F83640"/>
<path d="M868.073 981.679C855.45 981.679 842.827 977.257 832.598 968.34C810.327 948.766 808.151 914.765 827.738 892.581C837.241 881.779 850.299 875.399 864.663 874.457C878.955 873.514 892.811 878.226 903.62 887.723C925.891 907.298 928.068 941.299 908.48 963.483C897.889 975.517 883.017 981.679 868.073 981.679ZM868.073 879.459C854.579 879.459 841.159 885.041 831.583 895.916C823.022 905.63 818.742 918.172 819.613 931.077C820.411 943.981 826.287 955.87 836.008 964.425C856.103 982.114 886.862 980.157 904.563 960.003C922.264 939.921 920.305 909.183 900.138 891.493C890.924 883.374 879.462 879.386 868.073 879.386V879.459Z" fill="#F83640"/>
<path d="M865.098 1014.96L868.363 930.787C870.104 917.52 865.461 903.673 854.724 894.248L839.563 880.909C828.391 871.049 813.229 868.367 799.881 872.427L722.257 885.476C714.93 886.709 709.925 893.741 711.158 901.063L712.029 906.21C713.262 913.532 720.299 918.535 727.626 917.302L756.281 912.445L722.475 950.868C721.967 951.448 716.744 957.538 716.454 958.19L677.642 1002.27C675.176 1005.1 675.393 1009.45 678.295 1011.98L699.914 1030.98C702.743 1033.44 707.096 1033.22 709.635 1030.32L741.337 994.294L755.12 1006.4L723.418 1042.43C720.952 1045.26 721.169 1049.61 724.071 1052.15L745.689 1071.14C748.519 1073.61 752.871 1073.39 755.41 1070.49L799.083 1020.83C799.518 1020.32 810.472 1007.42 810.762 1006.76L834.339 980.302L833.034 1013.65C832.743 1020.68 838.329 1026.7 845.366 1026.99L851.968 1027.28C859.005 1027.57 865.026 1021.99 865.316 1014.96H865.098Z" fill="white"/>
<path d="M860.963 960.873C910.204 960.873 950.121 920.982 950.121 871.774C950.121 822.566 910.204 782.676 860.963 782.676C811.723 782.676 771.806 822.566 771.806 871.774C771.806 920.982 811.723 960.873 860.963 960.873Z" fill="white"/>
<path d="M860.891 962.685C839.563 962.685 818.089 955.218 800.824 940.066C763.173 906.935 759.473 849.373 792.553 811.674C808.586 793.405 830.785 782.531 855.087 781.008C879.39 779.486 902.749 787.46 921.031 803.482C939.312 819.504 950.194 841.688 951.79 865.974C953.386 890.261 945.333 913.605 929.301 931.874C911.31 952.318 886.136 962.685 860.891 962.685ZM861.036 784.633C836.806 784.633 812.721 794.638 795.455 814.212C763.681 850.315 767.235 905.485 803.363 937.239C839.49 968.992 894.697 965.44 926.471 929.337L927.922 930.569L926.471 929.337C941.851 911.865 949.541 889.463 948.017 866.192C946.494 842.921 936.047 821.679 918.564 806.31C902.024 791.81 881.494 784.633 861.036 784.633Z" fill="#4F4F4F"/>
<path d="M891.07 834.511C881.784 824.869 870.684 816.024 857.481 813.487C850.952 812.254 844.133 812.617 837.604 813.922C821.136 817.184 805.394 826.609 797.051 841.18C788.709 855.752 788.999 875.544 799.808 888.448C809.094 899.54 824.183 904.18 834.484 914.475C841.231 921.217 845.656 930.134 853.274 935.789C866.549 945.648 886.427 942.241 898.977 931.512C933.218 902.295 917.839 862.205 891.07 834.511Z" fill="url(#paint1_linear_1028_2382)"/>
<path d="M725.522 1012.78C725.522 1012.78 724.796 1012.64 724.579 1012.42L695.125 986.537C694.545 986.029 694.472 985.087 694.98 984.434C695.488 983.782 696.431 983.782 697.084 984.289L726.537 1010.17C727.118 1010.68 727.19 1011.62 726.682 1012.27C726.392 1012.64 725.957 1012.78 725.594 1012.78H725.522Z" fill="#4F4F4F"/>
<path d="M770.79 1052.65C770.79 1052.65 770.064 1052.51 769.847 1052.29L740.393 1026.41C739.813 1025.9 739.74 1024.96 740.248 1024.31C740.756 1023.73 741.699 1023.66 742.352 1024.16L771.805 1050.04C772.386 1050.55 772.458 1051.49 771.95 1052.15C771.66 1052.51 771.225 1052.65 770.862 1052.65H770.79Z" fill="#4F4F4F"/>
<path d="M724.941 998.644C724.941 998.644 724.216 998.499 723.998 998.281L700.203 977.402C699.623 976.895 699.551 975.952 700.058 975.3C700.566 974.72 701.509 974.647 702.162 975.155L725.957 996.034C726.537 996.541 726.61 997.484 726.102 998.136C725.812 998.498 725.377 998.644 725.014 998.644H724.941Z" fill="#4F4F4F"/>
<path d="M737.257 882.696L734.316 883.145L739.254 915.466L742.194 915.018L737.257 882.696Z" fill="#4F4F4F"/>
<path d="M748.374 913.532C747.648 913.532 746.995 913.025 746.923 912.3L743.368 887.071C743.223 886.274 743.803 885.549 744.601 885.404C745.472 885.331 746.125 885.839 746.27 886.636L749.825 911.865C749.97 912.662 749.389 913.387 748.591 913.532C748.591 913.532 748.446 913.532 748.374 913.532Z" fill="#4F4F4F"/>
<path d="M866.186 999.079L833.396 998.499L833.469 995.526L866.259 996.106L866.186 999.079Z" fill="#4F4F4F"/>
<path d="M861.181 990.524L835.717 990.161C834.919 990.161 834.267 989.509 834.267 988.639C834.267 987.842 834.919 987.189 835.717 987.189L861.181 987.552C861.979 987.552 862.632 988.204 862.632 989.074C862.632 989.871 861.979 990.524 861.181 990.524Z" fill="#4F4F4F"/>
<path d="M777.464 1044.46C777.464 1044.46 776.884 1044.39 776.666 1044.17L746.85 1017.93C746.342 1017.49 746.342 1016.77 746.777 1016.26C747.213 1015.75 747.938 1015.75 748.446 1016.19L778.262 1042.43C778.77 1042.87 778.77 1043.59 778.334 1044.1C778.117 1044.39 777.754 1044.53 777.464 1044.53V1044.46Z" fill="#4F4F4F"/>
<path d="M750.115 979.432C743.441 979.432 736.694 977.112 731.326 972.327C725.014 966.745 721.242 958.915 721.097 950.868C720.952 943.836 723.491 937.311 728.424 932.527C729.439 931.512 731.108 931.584 732.051 932.527C733.067 933.541 732.994 935.209 732.051 936.151C728.206 939.921 726.175 945.068 726.247 950.651C726.392 957.248 729.584 963.845 734.735 968.412C744.384 976.895 759.255 975.952 767.743 966.31C768.686 965.222 770.282 965.15 771.37 966.092C772.459 967.035 772.531 968.63 771.588 969.717C765.929 976.097 758.095 979.359 750.115 979.359V979.432Z" fill="#F83640"/>
<path d="M808.167 963.547L774.774 934.198C770.862 930.761 764.903 931.143 761.464 935.051L748.385 949.913C744.945 953.822 745.327 959.777 749.239 963.214L782.632 992.563C786.543 996 792.502 995.618 795.942 991.709L809.021 976.848C812.46 972.939 812.078 966.984 808.167 963.547Z" fill="white"/>
<path d="M788.853 996.251C786.242 996.251 783.703 995.309 781.744 993.569L748.373 964.208C746.197 962.323 744.891 959.64 744.746 956.813C744.528 953.913 745.471 951.158 747.43 948.983L760.488 934.121C764.406 929.627 771.297 929.192 775.795 933.179L809.166 962.54C813.664 966.455 814.099 973.342 810.182 977.837L797.123 992.699C795.237 994.874 792.553 996.179 789.651 996.324C789.434 996.324 789.144 996.324 788.926 996.324L788.853 996.251ZM768.541 933.251C766.292 933.251 764.116 934.194 762.52 935.934L749.461 950.796C748.083 952.391 747.358 954.421 747.503 956.595C747.648 958.698 748.591 960.655 750.187 962.105L783.558 991.466C785.154 992.844 787.185 993.496 789.361 993.424C791.465 993.279 793.424 992.336 794.875 990.741L807.933 975.88C810.834 972.545 810.544 967.47 807.207 964.57L773.837 935.209C772.313 933.904 770.427 933.251 768.541 933.251Z" fill="#231F20"/>
<path d="M767.452 955.363C768.895 955.363 770.064 954.194 770.064 952.753C770.064 951.312 768.895 950.143 767.452 950.143C766.01 950.143 764.841 951.312 764.841 952.753C764.841 954.194 766.01 955.363 767.452 955.363Z" fill="white"/>
<path d="M767.453 956.74C766.51 956.74 765.566 956.378 764.768 955.726C763.97 955.001 763.463 953.986 763.39 952.971C763.39 951.883 763.68 950.868 764.406 950.071C765.131 949.273 766.074 948.766 767.162 948.693C768.251 948.621 769.266 948.983 770.064 949.708C770.862 950.433 771.37 951.376 771.443 952.463C771.443 953.551 771.152 954.566 770.427 955.363C769.629 956.233 768.541 956.74 767.38 956.74H767.453ZM767.453 951.593C767.453 951.593 766.872 951.738 766.727 951.956C766.582 952.173 766.437 952.463 766.437 952.753C766.437 953.043 766.582 953.333 766.8 953.551C767.308 953.986 767.96 953.913 768.323 953.478C768.323 953.478 768.613 952.971 768.613 952.681C768.613 952.391 768.468 952.101 768.251 951.956C768.033 951.811 767.815 951.666 767.525 951.666L767.453 951.593Z" fill="#231F20"/>
<path d="M795.165 971.82C796.607 971.82 797.776 970.651 797.776 969.21C797.776 967.768 796.607 966.6 795.165 966.6C793.722 966.6 792.553 967.768 792.553 969.21C792.553 970.651 793.722 971.82 795.165 971.82Z" fill="white"/>
<path d="M795.165 973.27C794.222 973.27 793.279 972.907 792.481 972.255C791.683 971.53 791.175 970.515 791.103 969.5C791.103 968.412 791.393 967.398 792.118 966.6C792.844 965.803 793.787 965.295 794.875 965.223C795.89 965.15 796.979 965.513 797.777 966.238C798.575 966.963 799.082 967.905 799.155 968.992C799.155 970.08 798.865 971.095 798.139 971.892C797.341 972.762 796.253 973.27 795.092 973.27H795.165ZM795.165 968.122C795.165 968.122 794.585 968.267 794.44 968.485C794.295 968.702 794.149 968.992 794.149 969.282C794.149 969.572 794.294 969.862 794.512 970.08C794.947 970.442 795.673 970.442 796.036 970.007C796.253 969.79 796.326 969.5 796.326 969.21C796.326 968.92 796.181 968.63 795.963 968.485C795.745 968.34 795.528 968.195 795.238 968.195L795.165 968.122Z" fill="#231F20"/>
<path d="M779.64 965.875C781.283 965.875 782.615 964.544 782.615 962.903C782.615 961.261 781.283 959.93 779.64 959.93C777.998 959.93 776.666 961.261 776.666 962.903C776.666 964.544 777.998 965.875 779.64 965.875Z" fill="white"/>
<path d="M779.568 967.325C778.552 967.325 777.464 966.962 776.666 966.237C774.852 964.643 774.635 961.815 776.303 960.003C777.101 959.133 778.19 958.553 779.35 958.48C780.584 958.335 781.672 958.77 782.542 959.568C783.413 960.365 783.921 961.38 784.066 962.613C784.138 963.773 783.776 964.933 782.978 965.803C782.107 966.817 780.874 967.325 779.64 967.325H779.568ZM779.568 961.453H779.495C779.133 961.453 778.77 961.67 778.48 961.96C777.972 962.54 777.972 963.483 778.625 964.063C779.278 964.643 780.148 964.498 780.729 963.918C780.729 963.918 781.091 963.265 781.091 962.83C781.091 962.468 780.874 962.105 780.584 961.815C780.293 961.598 780.003 961.453 779.64 961.453H779.568Z" fill="#231F20"/>
<path d="M778.625 989.944C778.625 989.944 777.899 989.799 777.681 989.581C777.101 989.074 777.029 988.132 777.536 987.479L791.61 971.457C792.118 970.877 793.061 970.805 793.714 971.312C794.294 971.82 794.367 972.762 793.859 973.415L779.785 989.436C779.785 989.436 779.06 989.944 778.697 989.944H778.625Z" fill="#231F20"/>
<path d="M766.51 979.287C766.51 979.287 765.784 979.142 765.567 978.924C764.986 978.417 764.914 977.475 765.422 976.822L775.65 965.223C776.158 964.643 777.101 964.57 777.754 965.078C778.335 965.585 778.407 966.528 777.899 967.18L767.671 978.779C767.671 978.779 766.945 979.287 766.582 979.287H766.51Z" fill="#231F20"/>
<path d="M754.322 968.63C754.322 968.63 753.597 968.485 753.379 968.267C752.799 967.76 752.726 966.817 753.234 966.165L763.463 954.565C763.971 953.985 764.914 953.913 765.567 954.42C766.147 954.928 766.22 955.87 765.712 956.523L755.483 968.122C755.483 968.122 754.758 968.63 754.395 968.63H754.322Z" fill="#231F20"/>
<path d="M712.256 1007.6L691.556 989.408C686.351 984.833 678.421 985.342 673.843 990.543L673.412 991.033C668.835 996.234 669.343 1004.16 674.548 1008.73L695.249 1026.93C700.454 1031.5 708.384 1030.99 712.961 1025.79L713.392 1025.3C717.97 1020.1 717.461 1012.17 712.256 1007.6Z" fill="white"/>
<path d="M766.499 1055.15L745.799 1036.96C740.594 1032.39 732.664 1032.89 728.086 1038.09L727.655 1038.58C723.078 1043.79 723.587 1051.71 728.791 1056.29L749.492 1074.48C754.697 1079.05 762.627 1078.54 767.204 1073.34L767.636 1072.85C772.213 1067.65 771.704 1059.73 766.499 1055.15Z" fill="white"/>
<path d="M1048.93 953.116C1049.44 950.143 1048.2 947.171 1045.81 945.358L1011.2 920.129L1012.44 877.356C1012.51 874.384 1010.91 871.557 1008.23 870.179C1005.55 868.802 1002.35 869.019 999.887 870.759L965.138 895.843L924.803 881.489C921.974 880.474 918.782 881.199 916.678 883.229C914.502 885.331 913.776 888.448 914.647 891.276L927.777 932.019L901.661 965.947C899.848 968.34 899.485 971.53 900.863 974.212C902.169 976.894 904.926 978.634 907.9 978.634H950.702L974.932 1014.09C975.657 1015.17 976.673 1016.04 977.761 1016.62C979.212 1017.42 980.88 1017.71 982.549 1017.49C985.523 1017.06 987.99 1015.03 988.933 1012.13L1002.28 971.457L1043.34 959.35C1046.24 958.48 1048.35 956.088 1048.85 953.116H1048.93Z" fill="#38EAA9"/>
<path d="M600.6 1008.65C600.6 1008.65 606.911 1041.49 656.967 1050.55C660.957 1051.28 664.729 1041.71 659.071 1038.88C653.412 1036.05 632.012 1029.6 620.114 1004.88L600.6 1008.65Z" fill="#38EAA9"/>
<path d="M611.119 950.868C611.119 950.868 628.602 922.377 678.658 931.512C682.648 932.237 682.793 942.531 676.554 943.184C670.098 943.836 647.972 942.386 628.094 961.308L611.119 950.941V950.868Z" fill="#38EAA9"/>
<path d="M633.39 964.643L625.845 1005.97C625.845 1005.97 534.874 1038.44 464.868 965.803C451.23 951.593 462.909 943.474 472.558 940.284C482.206 937.094 567.011 899.686 633.39 964.715V964.643Z" fill="#99A1AE"/>
<path d="M499.182 931.729C498.892 930.932 472.268 939.341 468.278 941.444C458.339 946.663 451.302 951.521 464.941 965.73C472.848 973.922 481.045 980.809 489.316 986.537C489.316 986.537 509.265 960.075 499.254 931.729H499.182Z" fill="#F83640"/>
<path d="M541.04 990.089C554.422 990.089 565.27 979.248 565.27 965.875C565.27 952.502 554.422 941.661 541.04 941.661C527.658 941.661 516.81 952.502 516.81 965.875C516.81 979.248 527.658 990.089 541.04 990.089Z" fill="#F83640"/>
<path d="M541.04 983.999C551.056 983.999 559.176 975.885 559.176 965.875C559.176 955.865 551.056 947.751 541.04 947.751C531.024 947.751 522.904 955.865 522.904 965.875C522.904 975.885 531.024 983.999 541.04 983.999Z" fill="#38EAA9"/>
<path d="M608.217 980.157C608.217 980.157 602.051 991.611 634.188 995.164C662.335 998.209 670.315 999.659 671.766 991.756C673.217 983.854 655.661 978.562 637.815 975.3C619.969 972.037 610.031 970.225 608.217 980.157Z" fill="#38EAA9"/>
<path d="M691.208 1013.36C722.379 1013.36 747.648 988.108 747.648 956.958C747.648 925.808 722.379 900.555 691.208 900.555C660.037 900.555 634.768 925.808 634.768 956.958C634.768 988.108 660.037 1013.36 691.208 1013.36Z" fill="#818EF4"/>
<path d="M731.108 917.085C753.162 939.124 753.162 974.792 731.108 996.831C709.054 1018.87 673.362 1018.87 651.309 996.831C651.309 996.831 652.397 959.06 689.177 954.928C722.33 951.231 731.108 917.085 731.108 917.085Z" fill="#D7FFEF"/>
<path d="M404.728 1052C401.899 1052 399.07 1051.71 396.24 1051.13C374.259 1046.49 360.186 1024.89 364.901 1002.92C411.185 784.85 302.004 621.153 300.844 619.485C288.221 600.926 292.936 575.625 311.435 563.01C329.934 550.323 355.18 554.963 367.948 573.45C373.316 581.207 498.311 766.364 444.483 1019.81C440.42 1038.95 423.517 1052.07 404.728 1052.07V1052Z" fill="url(#paint2_linear_1028_2382)"/>
<path d="M622.654 638.697C621.058 638.697 619.462 638.552 617.793 638.334C598.569 635.652 585.148 617.963 587.832 598.751C593.563 557.5 587.179 527.777 568.825 510.305C539.517 482.321 481.263 485.801 461.241 489.498C442.162 493.051 423.88 480.509 420.253 461.515C416.626 442.521 429.104 424.179 448.11 420.554C452.463 419.684 555.332 400.762 617.068 459.267C652.832 493.196 666.398 543.364 657.403 608.393C655.009 625.938 639.919 638.697 622.654 638.697Z" fill="url(#paint3_linear_1028_2382)"/>
<path d="M121.73 1081C121.15 1081 120.57 1081 119.989 1081C97.5004 1080.06 80.0896 1061.14 81.0327 1038.66C88.4323 861.335 173.6 590.051 177.155 578.597C183.901 557.21 206.826 545.321 228.226 552.063C249.627 558.805 261.524 581.642 254.778 603.101C253.907 605.783 169.247 875.544 162.283 1042C161.412 1063.89 143.349 1081 121.658 1081H121.73Z" fill="url(#paint4_linear_1028_2382)"/>
<path d="M357.864 130.929C348.578 129.407 339.148 128.319 329.644 127.667C168.957 117.01 30.0336 238.514 19.3695 399.095L0 689.807L290.905 709.164C451.592 719.821 590.516 598.316 601.18 437.736C610.538 296.802 518.043 172.687 386.665 137.164C386.665 137.164 372.373 133.612 357.792 130.929H357.864Z" fill="url(#paint5_linear_1028_2382)"/>
<path d="M459.282 339.793C466.774 339.793 472.848 333.723 472.848 326.236C472.848 318.748 466.774 312.679 459.282 312.679C451.79 312.679 445.716 318.748 445.716 326.236C445.716 333.723 451.79 339.793 459.282 339.793Z" fill="black"/>
<path d="M269.795 327.178C277.287 327.178 283.361 321.108 283.361 313.621C283.361 306.134 277.287 300.064 269.795 300.064C262.303 300.064 256.229 306.134 256.229 313.621C256.229 321.108 262.303 327.178 269.795 327.178Z" fill="black"/>
<path d="M380.063 152.533L407.267 61.6223L439.767 71.3369L412.563 162.248C412.563 162.248 397.619 164.858 380.063 152.533Z" fill="url(#paint6_linear_1028_2382)"/>
<path d="M430.917 94.9708C457.16 94.9708 478.434 73.7109 478.434 47.4854C478.434 21.2599 457.16 0 430.917 0C404.674 0 383.4 21.2599 383.4 47.4854C383.4 73.7109 404.674 94.9708 430.917 94.9708Z" fill="url(#paint7_linear_1028_2382)"/>
<path d="M315.425 350.667C311.363 350.377 307.881 353.785 308.171 357.844C309.984 386.263 332.691 409.607 361.927 411.564C391.162 413.522 416.698 393.368 422.284 365.457C423.082 361.469 420.108 357.699 416.045 357.409L315.498 350.74L315.425 350.667Z" fill="black"/>
<path d="M372.664 401.995C372.664 401.995 356.994 364.731 320.286 371.329C320.286 371.329 327.541 398.95 372.664 401.995Z" fill="white"/>
<path d="M481.844 298.832C480.465 298.832 479.014 298.252 477.999 297.092C477.273 296.295 461.386 279.113 437.228 294.845C434.834 296.367 431.715 295.715 430.192 293.322C428.668 291.002 429.321 287.812 431.715 286.29C463.49 265.628 485.471 290.132 485.688 290.35C487.575 292.452 487.357 295.642 485.181 297.527C484.238 298.397 483.004 298.759 481.844 298.759V298.832Z" fill="black"/>
<path d="M306.793 273.603C305.922 273.603 305.051 273.385 304.253 272.878C303.891 272.66 267.908 251.999 249.264 268.238C247.161 270.051 243.969 269.906 242.082 267.731C240.196 265.628 240.414 262.438 242.59 260.553C266.748 239.457 307.736 263.018 309.404 264.033C311.798 265.483 312.669 268.528 311.218 270.993C310.275 272.588 308.534 273.53 306.793 273.53V273.603Z" fill="black"/>
<path d="M229.532 719.748C186.223 719.748 153.505 709.599 129.856 689.227C79.3644 645.729 90.5363 573.45 98.0085 525.674L98.3712 523.427C101.346 504.288 119.337 491.093 138.416 494.066C157.568 497.038 170.698 514.945 167.797 534.084L167.434 536.404C161.775 572.725 154.811 617.963 175.777 636.014C190.793 648.919 236.714 664.216 375.058 621.225C393.557 615.498 413.289 625.792 419.02 644.351C424.751 662.838 414.449 682.557 395.878 688.285C328.411 709.236 273.495 719.748 229.46 719.748H229.532Z" fill="url(#paint8_linear_1028_2382)"/>
<path d="M334.723 632.607L547.062 609.191L610.901 630.07L537.341 685.965L348.143 663.346L334.723 632.607Z" fill="#4F6278"/>
<path d="M378.54 644.787L402.697 780.211C402.697 780.211 363.233 743.672 355.688 725.693C348.143 707.714 334.723 632.607 334.723 632.607L378.54 644.787Z" fill="#FB5C5C"/>
<path d="M394.065 761.434L371.358 656.314L346.112 645.874C346.112 645.874 358.735 711.266 362.943 718.878C367.15 726.491 394.137 761.361 394.137 761.361L394.065 761.434Z" fill="#F83640"/>
<path d="M378.54 644.787L610.829 630.07C610.829 630.07 586.962 733.74 582.319 738.235C577.676 742.73 411.838 786.88 404.874 782.676C396.821 777.818 378.54 644.787 378.54 644.787Z" fill="#FB5C5C"/>
<path d="M391.38 658.416L595.377 642.974C595.377 642.974 580.142 724.678 576.08 728.665C572.017 732.653 420.253 770.786 414.232 767.161C407.195 762.956 391.453 658.416 391.453 658.416H391.38Z" fill="#F83640"/>
<path d="M462.345 640.451L444.349 642.015C443.311 642.105 442.543 643.019 442.633 644.056L442.797 645.934C442.887 646.971 443.801 647.739 444.839 647.648L462.835 646.085C463.873 645.994 464.641 645.08 464.55 644.043L464.387 642.166C464.297 641.128 463.382 640.361 462.345 640.451Z" fill="#4F6278"/>
<path d="M537.985 635.087L519.989 636.651C518.952 636.741 518.184 637.655 518.274 638.692L518.437 640.57C518.527 641.607 519.442 642.374 520.48 642.284L538.475 640.72C539.513 640.63 540.281 639.716 540.191 638.679L540.028 636.801C539.937 635.764 539.023 634.996 537.985 635.087Z" fill="#4F6278"/>
<path d="M415.32 609.191L373.316 629.852C373.316 629.852 373.897 720.328 407.195 715.181C437.301 710.541 415.32 609.191 415.32 609.191Z" fill="#FB5C5C"/>
<path d="M410.387 622.458L380.136 638.335C380.136 638.335 380.281 703.582 405.599 702.422C424.896 701.552 410.387 622.458 410.387 622.458Z" fill="#F83640"/>
<path d="M407.195 715.109L618.083 661.968C618.083 661.968 664.512 640.727 643.764 574.03L415.537 608.973C415.537 608.973 433.238 702.857 407.195 715.109Z" fill="#FB5C5C"/>
<path d="M428.233 701.189L601.253 657.546C601.253 657.546 639.339 640.074 622.291 585.412L433.456 613.831C433.456 613.831 449.561 691.112 428.233 701.189Z" fill="#F83640"/>
<path d="M229.532 719.748C186.223 719.748 153.505 709.599 129.856 689.227C79.3644 645.729 90.5363 573.45 98.0085 525.674L98.3712 523.427C101.346 504.288 119.337 491.093 138.416 494.066C157.568 497.038 170.698 514.945 167.797 534.084L167.434 536.404C161.775 572.725 154.811 617.963 175.777 636.014C190.793 648.919 236.714 664.216 375.058 621.225C393.557 615.498 413.289 625.792 419.02 644.351C424.751 662.838 414.449 682.557 395.878 688.285C328.411 709.236 273.495 719.748 229.46 719.748H229.532Z" fill="url(#paint9_linear_1028_2382)"/>
</g>
<defs>
<linearGradient id="paint0_linear_1028_2382" x1="568.825" y1="849.155" x2="735.243" y2="849.155" gradientUnits="userSpaceOnUse">
<stop offset="0.03" stop-color="#D7FFEF"/>
<stop offset="1" stop-color="#38EAA9"/>
</linearGradient>
<linearGradient id="paint1_linear_1028_2382" x1="791.248" y1="877.139" x2="918.637" y2="877.139" gradientUnits="userSpaceOnUse">
<stop stop-color="#F83640"/>
<stop offset="0.12" stop-color="#F43845"/>
<stop offset="0.27" stop-color="#E94055"/>
<stop offset="0.45" stop-color="#D74D70"/>
<stop offset="0.63" stop-color="#BF5F95"/>
<stop offset="0.83" stop-color="#A076C4"/>
<stop offset="1" stop-color="#818EF4"/>
</linearGradient>
<linearGradient id="paint2_linear_1028_2382" x1="464.575" y1="810.202" x2="280.137" y2="797.944" gradientUnits="userSpaceOnUse">
<stop stop-color="#BBC2E9"/>
<stop offset="0.26" stop-color="#9AA4DF"/>
<stop offset="0.57" stop-color="#7887D5"/>
<stop offset="0.83" stop-color="#6475CF"/>
<stop offset="1" stop-color="#5D6FCD"/>
</linearGradient>
<linearGradient id="paint3_linear_1028_2382" x1="662.917" y1="534.485" x2="415.216" y2="518.022" gradientUnits="userSpaceOnUse">
<stop stop-color="#BBC2E9"/>
<stop offset="0.26" stop-color="#9AA4DF"/>
<stop offset="0.57" stop-color="#7887D5"/>
<stop offset="0.83" stop-color="#6475CF"/>
<stop offset="1" stop-color="#5D6FCD"/>
</linearGradient>
<linearGradient id="paint4_linear_1028_2382" x1="241.426" y1="820.312" x2="95.8598" y2="810.637" gradientUnits="userSpaceOnUse">
<stop stop-color="#BBC2E9"/>
<stop offset="0.26" stop-color="#9AA4DF"/>
<stop offset="0.57" stop-color="#7887D5"/>
<stop offset="0.83" stop-color="#6475CF"/>
<stop offset="1" stop-color="#5D6FCD"/>
</linearGradient>
<linearGradient id="paint5_linear_1028_2382" x1="647.558" y1="440.683" x2="65.7273" y2="402.012" gradientUnits="userSpaceOnUse">
<stop stop-color="#BBC2E9"/>
<stop offset="0.26" stop-color="#9AA4DF"/>
<stop offset="0.57" stop-color="#7887D5"/>
<stop offset="0.83" stop-color="#6475CF"/>
<stop offset="1" stop-color="#5D6FCD"/>
</linearGradient>
<linearGradient id="paint6_linear_1028_2382" x1="425.781" y1="118.295" x2="393.253" y2="108.573" gradientUnits="userSpaceOnUse">
<stop stop-color="#BBC2E9"/>
<stop offset="0.26" stop-color="#9AA4DF"/>
<stop offset="0.57" stop-color="#7887D5"/>
<stop offset="0.83" stop-color="#6475CF"/>
<stop offset="1" stop-color="#5D6FCD"/>
</linearGradient>
<linearGradient id="paint7_linear_1028_2382" x1="476.491" y1="61.0991" x2="385.512" y2="33.907" gradientUnits="userSpaceOnUse">
<stop stop-color="#BBC2E9"/>
<stop offset="0.26" stop-color="#9AA4DF"/>
<stop offset="0.57" stop-color="#7887D5"/>
<stop offset="0.83" stop-color="#6475CF"/>
<stop offset="1" stop-color="#5D6FCD"/>
</linearGradient>
<linearGradient id="paint8_linear_1028_2382" x1="88.8742" y1="594.469" x2="423.266" y2="637.216" gradientUnits="userSpaceOnUse">
<stop stop-color="#BBC2E9"/>
<stop offset="0.26" stop-color="#9AA4DF"/>
<stop offset="0.57" stop-color="#7887D5"/>
<stop offset="0.83" stop-color="#6475CF"/>
<stop offset="1" stop-color="#5D6FCD"/>
</linearGradient>
<linearGradient id="paint9_linear_1028_2382" x1="88.8742" y1="594.469" x2="423.266" y2="637.216" gradientUnits="userSpaceOnUse">
<stop stop-color="#BBC2E9"/>
<stop offset="0.26" stop-color="#9AA4DF"/>
<stop offset="0.57" stop-color="#7887D5"/>
<stop offset="0.83" stop-color="#6475CF"/>
<stop offset="1" stop-color="#5D6FCD"/>
</linearGradient>
<clipPath id="clip0_1028_2382">
<rect width="1049" height="1081" fill="white"/>
</clipPath>
</defs>
</svg>
